<?xml version="1.0" encoding="UTF-8" standalone="no"?>
<svg
   width="40"
   height="39.999992"
   version="1.1"
   id="svg4"
   xmlns="http://www.w3.org/2000/svg"
   xmlns:svg="http://www.w3.org/2000/svg">
  <defs
     id="defs8" />
  <path
     fill="#2bd0d0"
     d="M 39.276257,5.016737 A 0.82163012,0.81249836 0 0 0 38.495076,4.97757 L 32.07035,7.970064 a 6.9800639,6.9024861 0 0 0 -3.984274,5.697488 l -0.165169,2.029996 -3.328655,5.467489 v -2.334162 c 0,-0.0083 -0.0051,-0.01417 -0.0051,-0.0225 a 0.82078742,0.81166503 0 0 0 -0.03876,-0.236666 L 22.999553,13.976718 26.162197,7.7233982 A 0.8292144,0.81999835 0 0 0 26.078767,6.8650666 L 21.106854,0.30924643 a 0.85870881,0.84916495 0 0 0 -1.325563,0 L 14.808533,6.8667332 a 0.8292144,0.81999835 0 0 0 -0.07837,0.8583316 l 3.162644,6.2524872 -1.548878,4.59499 a 0.82078742,0.81166503 0 0 0 -0.03961,0.236667 v 3.292493 l -5.163206,-7.749151 c -0.0059,-0.0083 -0.01685,-0.01417 -0.02191,-0.02167 a 0.83848407,0.82916499 0 0 0 -0.177809,-0.179166 c -0.01685,-0.01083 -0.03034,-0.025 -0.04719,-0.035 -0.01685,-0.01083 -0.01854,-0.01667 -0.0295,-0.0225 L 7.8267837,12.356722 6.5652655,10.464225 4.7425107,7.7250648 A 0.8283717,0.81916501 0 0 0 3.7759366,7.4033988 L 0.55093297,8.5225632 A 0.8283717,0.81916501 0 0 0 0.13716846,9.7458941 l 2.27949694,3.4224929 1.2573048,1.891663 0.4146072,3.447493 a 0.30337112,0.2999994 0 0 0 0.00843,0.03333 c 0.00337,0.01667 0.00758,0.03417 0.01264,0.05083 a 0.81994472,0.8108317 0 0 0 0.097753,0.245833 c 0.0059,0.0083 0.0059,0.01917 0.011798,0.0275 0.0059,0.0083 12.3236086,18.470796 12.3834406,18.520796 a 4.1039371,4.0583251 0 0 0 3.836799,2.614161 c 0.337079,0 0.674158,-0.04167 1.00281,-0.120833 a 4.1174203,4.0716585 0 0 0 2.551688,-1.862496 l 11.022484,-18.08163 1.740171,-1.089165 a 7.0306257,6.952486 0 0 0 2.241575,-2.267495 6.9598391,6.8824861 0 0 0 0.994383,-3.875826 L 39.669796,5.6859023 A 0.8292144,0.81999835 0 0 0 39.276257,5.016737 Z m -6.001692,14.603303 -1.282586,2.105829 -4.258994,-2.539994 1.284271,-2.10583 z M 17.961907,32.038349 V 19.65004 h 4.971916 v 4.233325 z m 1.426687,-17.304965 h 2.119384 l 1.103934,3.277493 h -4.328094 l 1.103933,-3.277493 z m 1.059271,-5.7374884 a 0.8283717,0.81916501 0 1 1 0,-1.63833 0.8283717,0.81916501 0 0 1 0,1.63833 z m 0,-6.8283195 4.002813,5.2758226 -2.856744,5.6499883 h -0.317697 v -2.608328 a 2.4859578,2.4583284 0 1 0 -1.656744,0 v 2.608328 H 19.302639 L 16.445894,7.4433987 20.448708,2.1675761 Z M 8.8734141,14.848383 8.6290318,15.006716 5.5776239,16.995879 5.2970057,14.673384 A 0.827529,0.81833168 0 0 0 5.1655448,14.320051 l -0.910956,-1.368331 1.3828667,-0.901664 0.910956,1.36833 a 0.83258519,0.82333167 0 0 0 0.2772475,0.258333 l 2.0469124,1.171664 z M 3.7144196,9.160062 4.7256567,10.678392 3.3419473,11.580057 2.0989684,9.7200608 Z m 4.4233195,8.12915 2.0713509,-1.353331 6.095231,9.143315 v 8.938315 L 6.0613323,18.642542 Z M 22.577362,37.165005 A 2.4860652,2.4584346 0 1 1 18.320054,34.62501 l 6.257029,-10.262479 h 0.01433 v -0.0225 l 2.285396,-3.749159 2.129496,1.271664 2.132025,1.266664 -8.561807,14.035805 z M 37.583277,15.728382 a 5.3536576,5.294156 0 0 1 -1.708991,1.727496 l -1.472192,0.922498 -2.403374,-1.43083 -2.403373,-1.430831 0.136517,-1.72083 a 5.3241632,5.2649894 0 0 1 3.037082,-4.344157 l 5.303938,-2.4683283 0.105338,2.2833287 a 0.81994472,0.8108317 0 0 0 -0.248596,0.011667 L 35.92232,9.7700611 a 5.0443876,4.9883233 0 0 0 -3.728936,3.7699919 0.82861866,0.81940923 0 0 0 1.617136,0.358332 3.3977566,3.3599932 0 0 1 2.508711,-2.535828 l 1.935676,-0.474999 0.0868,1.884996 a 5.3123654,5.2533227 0 0 1 -0.758428,2.956661 z"
     id="path2"
     style="stroke-width:0.838002" />
</svg>
